# xmcd
#
# Track frame offsets: 
#        150
#        18107
#        36389
#        54622
#        77509
#        95457
#        112954
#        126966
#        145979
#        165467
#        182248
#        202899
#        223756
#        241990
#        264873
#
# Disc length: 3773 seconds
#
# Revision: 3
# Processed by: cddbd v1.5.2PL0 Copyright (c) Steve Scherf et al.
# Submitted via: ExactAudioCopy v1.3
#
DISCID=c80ebb0f
DTITLE=Tiziano Ferro - Rojo Relativo
DYEAR=2002
DGENRE=Pop
TTITLE0=Las Cosas Que No Dices 
TTITLE1=Rojo Relativo 
TTITLE2=Perdona 
TTITLE3=Alucinado
TTITLE4=Y Más
TTITLE5=Si No Hubiera Nacido
TTITLE6=Primavera Nunca Fué
TTITLE7=El Confín
TTITLE8=Boom Boom
TTITLE9=La Olimpiada
TTITLE10=Soul-Dier
TTITLE11=Il Bimbo Dentro
TTITLE12=Perdono (Versión En Italiano)
TTITLE13=Imbranato (Versión En Italiano)
TTITLE14=Rosso Relativo (Versión En Italiano)
EXTD=
EXTT0=
EXTT1=
EXTT2=
EXTT3=
EXTT4=
EXTT5=
EXTT6=
EXTT7=
EXTT8=
EXTT9=
EXTT10=
EXTT11=
EXTT12=
EXTT13=
EXTT14=
PLAYORDER=
